<?xml version="1.0" standalone="no"?>
<!DOCTYPE svg PUBLIC "-//W3C//DTD SVG 20010904//EN"
 "http://www.w3.org/TR/2001/REC-SVG-20010904/DTD/svg10.dtd">
<svg version="1.0" xmlns="http://www.w3.org/2000/svg"
 width="562.000000pt" height="358.000000pt" viewBox="0 0 562.000000 358.000000"
 preserveAspectRatio="xMidYMid meet">

<g transform="translate(0.000000,358.000000) scale(0.100000,-0.100000)"
fill="#000000" stroke="none">
<path d="M165 3388 l-130 -133 133 130 c123 120 137 135 129 135 -1 0 -61 -60
-132 -132z"/>
<path d="M330 3433 l0 -88 -147 -150 -148 -150 148 145 147 145 0 -100 0 -100
-147 -150 -148 -150 148 145 147 145 0 -100 0 -100 -147 -150 -148 -150 148
145 147 145 0 -100 0 -100 -147 -150 -148 -150 148 145 147 145 0 -100 0 -100
-147 -150 -148 -150 148 145 147 145 0 -100 0 -100 -147 -150 -148 -150 147
145 148 145 0 -100 0 -100 -147 -150 -148 -150 148 145 147 145 0 -100 0 -100
-147 -150 -148 -150 148 145 147 145 0 -100 0 -100 -147 -150 -148 -150 148
145 147 145 0 -100 0 -100 -147 -150 -148 -150 147 145 148 145 0 -100 0 -100
-148 -150 -147 -150 147 145 148 145 0 -100 0 -100 -147 -150 -148 -150 148
145 147 145 0 -100 0 -100 -147 -150 -148 -150 148 145 147 145 0 -100 0 -100
-147 -150 -148 -150 148 145 147 145 0 -100 0 -100 -147 -150 -148 -150 148
145 147 145 0 -100 0 -100 -73 -75 -72 -75 72 70 73 69 0 -67 c0 -38 4 -67 10
-67 7 0 10 295 10 865 l0 865 2458 -1 c1650 0 2452 -3 2442 -10 -8 -6 -50 -30
-92 -55 -43 -25 -78 -49 -78 -55 0 -5 24 4 53 21 28 17 78 45 110 63 31 17 57
36 57 42 0 6 -26 25 -57 42 -32 18 -82 46 -112 64 -29 17 -51 25 -49 18 2 -7
42 -34 89 -61 l84 -48 -2452 0 -2453 0 0 860 c0 567 -3 860 -10 860 -6 0 -10
-36 -10 -87z"/>
<path d="M5380 1820 c-13 -8 -12 -10 3 -10 29 0 41 -49 23 -88 -13 -26 -21
-32 -36 -27 -14 5 -20 2 -20 -9 0 -26 27 -18 53 15 l24 31 6 -31 c7 -36 26
-40 52 -11 10 11 13 20 7 20 -6 0 -12 -5 -14 -12 -7 -19 -25 0 -32 33 -7 39
17 73 46 63 12 -3 18 0 18 10 0 28 -23 30 -46 3 -28 -33 -32 -33 -36 -5 -3 25
-25 33 -48 18z"/>
<path d="M521 1591 c-67 -71 -66 -221 1 -221 66 0 126 166 82 228 -21 30 -51
28 -83 -7z m72 -44 c-1 -37 -11 -78 -27 -113 -21 -46 -29 -55 -48 -52 -21 3
-23 8 -21 61 1 37 11 78 27 113 21 46 29 55 48 52 21 -3 23 -8 21 -61z"/>
</g>
</svg>
